<?xml version="1.0" standalone="no"?><!DOCTYPE svg PUBLIC "-//W3C//DTD SVG 1.1//EN" "http://www.w3.org/Graphics/SVG/1.1/DTD/svg11.dtd"><svg t="1542627872039" class="icon" style="" viewBox="0 0 1024 1024" version="1.1" xmlns="http://www.w3.org/2000/svg" p-id="23333" xmlns:xlink="http://www.w3.org/1999/xlink" width="200" height="200"><defs><style type="text/css"></style></defs><path d="M948.3 0H75.5C33.9 0 0 33.1 0 73.8v876.3c0 40.8 33.9 73.9 75.5 73.9h872.8c41.8 0 75.7-33.1 75.7-73.9V73.8C1024 33 990 0 948.3 0z" fill="#1274AA" p-id="23334"></path><path d="M151.7 383.9h152v488.6h-152V383.9M227.8 141c31.9-0.7 61.7 16 77.9 43.5 16.2 27.6 16.1 61.7-0.1 89.2-16.2 27.5-46 44.1-78 43.4-47.9-1.1-86.1-40.2-86.1-88.1 0.1-47.9 38.4-87 86.3-88zM399 383.9h145.6v66.8h2.1c20.3-38.4 69.8-78.9 143.7-78.9 153.8 0 182.2 101.2 182.2 232.8v268H720.8V634.9c0-56.7-1-129.6-78.9-129.6-79 0-91.1 61.8-91.1 125.5v241.7H399V383.9" fill="#FFFFFF" p-id="23335"></path></svg>